<?xml version="1.0" encoding="UTF-8" standalone="no"?>
<svg xmlns:dc="http://purl.org/dc/elements/1.1/" xmlns:cc="http://creativecommons.org/ns#" xmlns:rdf="http://www.w3.org/1999/02/22-rdf-syntax-ns#" xmlns:svg="http://www.w3.org/2000/svg" xmlns="http://www.w3.org/2000/svg" version="1.1" id="svg4288" viewBox="0 0 446.50962 375.74842" height="106.04456mm" width="126.01494mm">
    <defs id="defs4290" />
    <metadata id="metadata4293">
        <rdf:RDF>
            <cc:Work rdf:about="">
                <dc:format>image/svg+xml</dc:format>
                <dc:type rdf:resource="http://purl.org/dc/dcmitype/StillImage" />
                <dc:title></dc:title>
            </cc:Work>
        </rdf:RDF>
    </metadata>
    <g transform="translate(1414.6834,-190.20229)" id="layer1">
        <path style="fill:#5c5c5c" d="m -1220.5178,565.80457 c -2.7539,-0.3186 -8.9436,-1.2742 -14.4,-2.2233 -5.8128,-1.0111 -6.3199,-1.1145 -7.8459,-1.6004 -0.7997,-0.2546 -3.1416,-1.0006 -5.2041,-1.6578 -5.3143,-1.6932 -8.4244,-2.9058 -11.7,-4.5621 -3.1217,-1.5784 -3.7457,-1.988 -9.8181,-6.4454 -4.5413,-3.3334 -6.014,-4.0098 -10.0569,-4.6185 -2.654,-0.3996 -4.6285,-0.2695 -9.525,0.6276 -0.9075,0.1663 -1.8525,0.3002 -2.1,0.2976 -0.5108,0 -5.629,-0.5112 -9,-0.8894 -3.2723,-0.3671 -6.675,-1.3638 -9.75,-2.8561 -1.485,-0.7206 -3.497,-1.6711 -4.4711,-2.1122 -2.5625,-1.1603 -4.5944,-2.8394 -9.3289,-7.7092 -2.8123,-2.8927 -5.6452,-6.2506 -8.5741,-10.1634 -4.0466,-5.4059 -5.3711,-7.4593 -7.4882,-11.6091 -0.4394,-0.8612 -0.9639,-1.7647 -1.1656,-2.0078 -0.2018,-0.2431 -0.4631,-1.091 -0.5806,-1.8842 -0.2098,-1.4156 -0.2323,-1.4408 -1.2179,-1.3607 -1.0014,0.081 -10.0306,-1.2198 -12.0236,-1.7327 -0.5775,-0.1486 -2.1461,-0.5486 -3.4858,-0.8887 -2.7723,-0.7039 -6.8527,-2.6233 -8.3249,-3.916 -0.5469,-0.4801 -1.3194,-1.0168 -1.7168,-1.1927 -3.728,-1.65 -8.9586,-7.8348 -12.1797,-14.4015 -2.9704,-6.0557 -3.0389,-6.258 -3.2411,-9.5722 -0.061,-1.0006 -0.1816,-1.9334 -0.2679,-2.0731 -0.086,-0.1396 -1.1417,-0.4216 -2.3453,-0.6267 -1.3785,-0.2349 -3.1215,-0.8365 -4.7096,-1.6255 -2.2354,-1.1106 -2.9057,-1.6604 -5.9166,-4.8525 -2.7622,-2.9284 -6.1123,-7.2437 -6.1123,-7.8732 0,-0.074 -0.2452,-0.4925 -0.5449,-0.9305 -0.2997,-0.438 -0.9986,-2.0113 -1.5532,-3.4963 -0.5545,-1.485 -1.1077,-2.835 -1.2295,-3 -0.2555,-0.3464 -1.2386,-5.6233 -1.8032,-9.6791 -0.3166,-2.2743 -0.5055,-2.8567 -1.04,-3.2069 -1.4813,-0.9706 -5.1264,-11.65347 -5.4301,-15.91397 -0.1922,-2.6962 1.542,-11.4528 2.8662,-14.473 1.7125,-3.9058 2.0711,-5.252 2.2581,-8.477 0.3786,-6.5299 3.1284,-13.8775 7.1516,-19.1096 0.4538,-0.5901 0.825,-1.2359 0.825,-1.4352 0,-0.1992 0.27,-0.6066 0.6,-0.9052 0.33,-0.2987 0.6,-0.7701 0.6,-1.0476 0,-0.2776 0.8602,-1.5965 1.9115,-2.9309 1.0514,-1.3344 2.223,-2.9427 2.6037,-3.5739 2.0637,-3.4218 6.0519,-8.10282 13.0348,-15.29875 2.805,-2.89058 5.2069,-5.44348 5.3376,-5.67312 0.3348,-0.58827 10.4805,-9.83636 12.9736,-11.82575 1.1373,-0.9075 3.1525,-2.66291 4.4783,-3.9009 3.7173,-3.4712 7.0693,-6.42495 12.3554,-10.88768 2.6647,-2.24962 5.0947,-4.40697 5.4,-4.79411 0.6859,-0.86977 4.2559,-3.94178 6.1979,-5.33341 0.7936,-0.56865 1.8841,-1.3714 2.4233,-1.7839 3.4146,-2.61199 5.6076,-4.18196 6.8078,-4.87364 2.1809,-1.25681 1.7424,-0.14209 4.4552,-11.32636 0.6604,-2.72248 1.4013,-6.23248 1.6465,-7.79998 0.8011,-5.1223 3.0396,-15.44651 3.4799,-16.05 0.1203,-0.165 0.3066,-0.9075 0.4139,-1.65 0.1073,-0.7425 0.6087,-3.0375 1.1142,-5.1 0.5054,-2.0625 1.0183,-4.29 1.1397,-4.95 0.2224,-1.20957 0.3842,-1.74997 1.7519,-5.85 0.6815,-2.04271 1.5136,-4.1698 2.6683,-6.82062 0.2325,-0.53384 0.6074,-1.41134 0.8331,-1.95 0.2256,-0.53866 0.557,-1.31688 0.7364,-1.72938 0.1794,-0.4125 0.8773,-2.40498 1.5508,-4.42774 0.6735,-2.02275 1.4177,-4.04775 1.6536,-4.5 0.2359,-0.45224 0.4297,-0.9885 0.4308,-1.19168 0,-0.35929 1.8801,-4.5253 3.0304,-6.72143 0.3143,-0.59996 0.5714,-1.24389 0.5714,-1.43096 0,-0.18706 0.3178,-0.84368 0.7062,-1.45915 0.3884,-0.61547 0.8128,-1.45654 0.9431,-1.86904 0.1304,-0.4125 0.5775,-1.1971 0.9936,-1.74355 0.7563,-0.9932 0.7573,-0.99348 2.7319,-0.79418 1.0863,0.10966 2.4217,0.4555 2.9674,0.76855 0.5456,0.31305 1.3692,0.56918 1.8302,0.56918 0.4609,0 1.2295,0.13238 1.7078,0.29417 0.4784,0.1618 1.8148,0.41693 2.9698,0.56697 1.155,0.15003 3.99,0.54761 6.3,0.88349 12.6274,1.8361 18.6333,2.33039 24.4986,2.01625 l 4.088,-0.21895 0.9051,-1.39597 c 0.4979,-0.76778 1.4909,-2.01122 2.2067,-2.76321 2.2742,-2.38893 7.9931,-6.70251 11.7105,-8.83275 0.8457,-0.48467 2.9951,-2.01069 4.322,-3.06863 0.677,-0.53976 1.3308,-0.98137 1.4528,-0.98137 0.122,0 0.8506,-0.48652 1.6191,-1.08116 3.6911,-2.85618 12.2536,-7.91884 13.3931,-7.91884 0.2087,0 1.163,-0.34651 2.1206,-0.77002 2.7584,-1.21989 3.8057,-1.52067 7.7126,-2.21499 2.019,-0.35882 4.6159,-0.84252 5.7709,-1.0749 1.155,-0.23239 3.72,-0.57145 5.7,-0.75348 3.2247,-0.29646 4.0692,-0.26259 8.1,0.32491 2.475,0.36073 5.3775,0.76718 6.45,0.9032 5.0105,0.63549 7.9059,1.18792 8.3572,1.59456 0.2711,0.24419 0.8978,0.54271 1.3928,0.66339 0.495,0.12067 1.3705,0.46869 1.9456,0.77337 0.575,0.30468 1.2057,0.55396 1.4015,0.55396 0.1957,0 1.491,0.57375 2.8785,1.275 1.3874,0.70125 3.4567,1.67402 4.5985,2.1617 2.2292,0.95217 6.7745,3.9055 10.1759,6.61188 1.155,0.91898 3.1002,2.43018 4.3227,3.35823 2.9066,2.20653 8.3722,7.49172 10.4895,10.14319 0.9223,1.155 1.9591,2.37 2.304,2.7 0.345,0.33 1.1924,1.37216 1.8833,2.31592 0.6908,0.94375 1.5557,1.87632 1.9221,2.07238 0.3663,0.19605 0.8469,0.53737 1.0681,0.75848 0.2657,0.26577 0.5729,0.31166 0.9061,0.1354 0.2773,-0.14664 1.9217,-0.34979 3.6542,-0.45144 1.7325,-0.10166 3.6225,-0.23828 4.2,-0.30362 0.5775,-0.0653 3.615,-0.20386 6.75,-0.30782 3.135,-0.10397 6.058,-0.25991 6.4956,-0.34653 1.7393,-0.34435 5.9253,-0.7926 8.0544,-0.86248 1.2375,-0.0406 2.8575,-0.23594 3.6,-0.43405 2.2905,-0.61114 4.636,-0.90947 9.2327,-1.17429 2.4308,-0.14004 4.6891,-0.39854 5.0185,-0.57444 0.6519,-0.34819 6.106,-1.31259 7.3987,-1.30827 0.44,0.001 0.9628,-0.19351 1.1618,-0.43329 0.2164,-0.26074 0.8938,-0.43595 1.6856,-0.43595 0.7281,0 1.6241,-0.19677 1.9912,-0.43726 0.4093,-0.26819 0.8269,-0.33866 1.08,-0.18225 0.2452,0.15158 0.8087,0.0895 1.3891,-0.15298 0.7633,-0.31894 1.6539,-0.34916 4.0799,-0.13843 2.639,0.22922 3.1828,0.36746 3.633,0.92348 0.5502,0.6795 0.5747,0.84648 0.6432,4.38381 0.03,1.56734 0.1811,2.3006 0.5589,2.71804 0.4177,0.46158 0.5256,1.21163 0.5607,3.89528 0.024,1.82799 -0.035,3.45029 -0.1306,3.60511 -0.1626,0.26299 0.093,2.80055 1.1738,11.6352 0.2422,1.98 0.5668,4.815 0.7214,6.3 0.1545,1.485 0.4188,3.645 0.5872,4.8 0.1684,1.155 0.4442,3.45 0.6129,5.1 0.1687,1.65 0.4349,3.8775 0.5918,4.95 0.1568,1.0725 0.5065,3.6375 0.7772,5.7 0.7672,5.84691 1.5842,11.32463 2.0804,13.95 0.2495,1.32 0.6034,3.41248 0.7863,4.64998 0.1829,1.2375 0.5942,3.06 0.914,4.05 0.7832,2.42484 1.3723,5.0208 2.0766,9.15 0.3236,1.8975 0.8132,4.395 1.088,5.55 0.2748,1.155 0.5943,2.775 0.71,3.6 0.2996,2.13553 1.0949,6.20851 1.3288,6.80539 0.1089,0.27796 0.9633,1.01898 1.8985,1.64671 2.0109,1.34973 4.8708,3.47687 6.3769,4.74295 0.592,0.49772 2.873,2.38995 5.0688,4.20495 2.1959,1.815 4.9515,4.11701 6.1236,5.11558 1.1721,0.99858 3.0761,2.54941 4.2311,3.44631 1.155,0.89689 3.4535,2.72064 5.1077,4.05279 5.2036,4.19039 12.1755,9.2101 16.10151,11.59298 4.11483,2.49748 7.27455,4.63006 9.10377,6.14446 0.98286,0.8136 2.42475,1.9151 3.20418,2.4476 0.77943,0.5326 2.73693,2.0486 4.35,3.3691 4.84971,3.9698 5.04489,4.1155 6.11283,4.5617 2.86035,1.1951 4.52373,4.9352 5.97636,13.4378 0.59358,3.4744 -0.23496,8.0114 -2.28549,12.5149 -0.39645,0.8707 -0.72084,1.6525 -0.72084,1.7371 0,0.935 -6.92565,8.5824 -10.10838,11.1618 -0.4629,0.3751 -2.26596,1.8862 -4.00686,3.3581 l -3.16524,2.676 -0.38016,2.7919 c -0.8244,6.0542 -1.59879,8.2388 -6.57246,18.54187 -2.57703,5.3383 -3.20301,6.3384 -7.37172,11.7775 -2.1077,2.7501 -8.9723,9.6288 -12.3452,12.3707 -1.2546,1.0199 -5.6457,3.7518 -6.0304,3.7518 -0.1223,0 -0.4355,0.1888 -0.696,0.4195 -0.5419,0.4801 -2.1979,1.4576 -4.3736,2.5815 -2.8545,1.4747 -3.7506,2.1462 -3.9434,2.9548 -0.1041,0.4368 -0.2935,0.9292 -0.421,1.0942 -0.2094,0.2713 -1.4299,4.4086 -2.0796,7.05 -1.0412,4.2327 -2.0636,6.5748 -4.5511,10.4255 -1.5933,2.4665 -2.8289,4.1093 -4.5887,6.1008 -0.6689,0.7569 -2.4987,2.8345 -4.0662,4.6167 -4.0816,4.6409 -11.1655,10.3341 -15.75,12.658 -4.4204,2.2408 -12.4396,4.8827 -21.75,7.1655 -1.7325,0.4248 -3.8504,1.1011 -4.7064,1.5029 -0.856,0.4018 -1.801,0.7361 -2.1,0.7428 -0.299,0.01 -1.011,0.4117 -1.5822,0.9 -0.5713,0.4883 -1.2713,0.8878 -1.5556,0.8878 -0.2843,0 -0.8969,0.5482 -1.3613,1.2182 -1.2999,1.8753 -5.714,7.4703 -7.1024,9.0024 -0.6832,0.7539 -2.0521,2.3495 -3.0421,3.5458 -0.99,1.1963 -3.0825,3.2242 -4.65,4.5063 -3.5056,2.8674 -10.3247,7.4525 -12.75,8.573 -0.99,0.4574 -2.6856,1.2667 -3.768,1.7985 -3.2316,1.5877 -6.2115,2.3972 -11.682,3.1735 -2.4895,0.3533 -9.355,0.8637 -9.6155,0.7149 -0.091,-0.052 -1.6435,-0.243 -3.45,-0.4245 -1.8065,-0.1814 -4.162,-0.5263 -5.2345,-0.7663 -1.0725,-0.24 -3.0975,-0.5814 -4.5,-0.7587 -1.4025,-0.1774 -3.4275,-0.4455 -4.5,-0.5957 -1.0725,-0.1503 -3.0975,-0.41 -4.5,-0.5772 -1.4025,-0.1672 -2.9835,-0.4294 -3.5133,-0.5828 -1.1971,-0.3465 -4.0963,0.021 -4.8069,0.6097 -0.8613,0.7133 -4.4627,2.0629 -5.5051,2.0629 -0.1994,0 -1.0516,0.4531 -1.8936,1.007 -3.7716,2.4807 -14.4132,6.2077 -20.2811,7.1029 -0.9075,0.1385 -2.46,0.3946 -3.45,0.5692 -1.6463,0.2903 -9.255,0.375 -11.4,0.1269 z m 5.25,-12.0863 c 0.5775,-0.152 2.13,-0.4196 3.45,-0.5949 6.0636,-0.8049 7.587,-1.1326 12,-2.5816 1.32,-0.4335 2.5704,-0.8419 2.7786,-0.9076 0.542,-0.1711 0.2125,-2.8537 -0.8458,-6.8856 -0.8441,-3.2157 -1.3319,-5.5009 -1.7612,-8.25 -0.1159,-0.7425 -0.3603,-1.8225 -0.5432,-2.4 -0.6215,-1.9634 -1.0046,-4.0825 -0.8234,-4.5548 0.099,-0.259 -0.029,-1.2782 -0.2842,-2.2648 -0.2556,-0.9866 -0.6129,-2.8596 -0.7939,-4.1622 -0.1809,-1.3025 -0.4658,-2.5333 -0.633,-2.7352 -0.1672,-0.2018 -0.4172,-1.7815 -0.5556,-3.5104 -0.1384,-1.7289 -0.3766,-3.3863 -0.5294,-3.683 -0.1528,-0.2968 -0.2129,-0.7217 -0.1335,-0.9442 0.079,-0.2225 -0.067,-1.5725 -0.3254,-3 -0.5476,-3.026 -1.357,-8.1217 -1.6988,-10.6954 -0.1314,-0.99 -0.5971,-3.96 -1.0348,-6.6 -0.4377,-2.64 -0.9224,-5.745 -1.0771,-6.9 -0.1547,-1.155 -0.5439,-3.45 -0.8649,-5.1 -0.3209,-1.65 -0.7246,-4.08 -0.897,-5.4 -0.1723,-1.32 -0.4522,-3.21 -0.6219,-4.2 -0.1697,-0.99 -0.4525,-2.6775 -0.6285,-3.75 -0.176,-1.0725 -0.5036,-2.9625 -0.7279,-4.2 -0.8999,-4.965 -1.6579,-9.2504 -1.9632,-11.1 -0.1771,-1.0725 -0.4419,-2.5575 -0.5886,-3.3 -0.1466,-0.7425 -0.4169,-2.565 -0.6005,-4.05 -0.1836,-1.485 -0.4456,-2.97 -0.5821,-3.3 -0.1365,-0.33 -0.3961,-1.7475 -0.577,-3.15 -0.1808,-1.4025 -0.5434,-3.5625 -0.8056,-4.8 -0.2622,-1.2375 -0.592,-3.19497 -0.7328,-4.34997 -0.1408,-1.155 -0.5881,-3.5175 -0.9941,-5.25 -0.4061,-1.7325 -0.8244,-4.095 -0.9297,-5.25 -0.1054,-1.155 -0.4472,-3.45 -0.7597,-5.1 -0.684,-3.6119 -1.0256,-5.9075 -1.6742,-11.25 -0.2704,-2.2275 -0.8166,-5.7375 -1.2139,-7.8 -0.9745,-5.0596 -2.2138,-11.4082 -2.706,-13.8621 -0.5412,-2.6987 -0.3697,-4.7268 0.4992,-5.902 0.3806,-0.5148 0.8118,-0.9359 0.9582,-0.9359 0.6287,0 4.5698,-4.4531 5.2438,-5.925 0.3966,-0.8663 0.917,-1.575 1.1565,-1.575 0.2395,0 0.5528,-0.3038 0.6962,-0.675 0.1434,-0.3713 0.6126,-1.0023 1.0426,-1.4023 0.43,-0.4 0.7818,-0.9529 0.7818,-1.22852 0,-0.27567 0.27,-0.74556 0.6,-1.04421 0.33,-0.29864 0.6005,-0.69081 0.6011,-0.87149 6e-4,-0.18068 0.4116,-1.1385 0.9132,-2.1285 1.2241,-2.41572 1.7761,-4.00795 1.7813,-5.13827 0,-0.51605 0.2069,-1.10633 0.4544,-1.31173 0.2475,-0.20541 0.451,-0.72819 0.4521,-1.16174 10e-4,-0.43354 0.2793,-1.93576 0.618,-3.33826 0.3387,-1.4025 0.5398,-2.94058 0.4468,-3.41795 -0.093,-0.47737 -0.033,-1.03185 0.1332,-1.23217 0.1663,-0.20032 0.3668,-1.15974 0.4457,-2.13205 0.079,-0.97231 0.2917,-2.64533 0.473,-3.71783 0.1813,-1.0725 0.3956,-3.99939 0.4762,-6.50419 0.1409,-4.37472 0.1209,-4.57988 -0.5053,-5.20611 -0.5629,-0.56295 -0.761,-0.97943 -0.8667,-1.82273 -0.063,-0.49898 -6.2659,-0.82112 -9.023,-0.46858 -8.7921,1.12424 -12.0197,1.6445 -12.4578,2.00809 -0.2708,0.22473 -0.8299,0.28755 -1.4778,0.16602 -0.9509,-0.1784 -1.1809,-0.0649 -2.6282,1.29691 -0.8724,0.82083 -2.1588,2.01407 -2.8587,2.65164 -1.0689,0.97373 -1.3034,1.39682 -1.4654,2.64409 -0.1061,0.81667 -0.3771,1.69788 -0.6023,1.95824 -0.298,0.34456 -0.3662,1.03849 -0.2508,2.55 0.216,2.82848 0.6371,3.88961 2.3298,5.87076 l 1.4475,1.69415 -0.2091,2.57699 c -0.1919,2.36511 -0.2887,2.65896 -1.1773,3.57399 -0.7138,0.73495 -1.4324,1.09957 -2.7341,1.38726 -0.9712,0.21464 -1.9314,0.52416 -2.1338,0.68782 -0.3222,0.26046 -3.945,0.62806 -5.632,0.57147 -1.5257,-0.0512 -3.1586,-0.43472 -3.4752,-0.81624 -0.1916,-0.23077 -0.8516,-0.41958 -1.4668,-0.41958 -0.6151,0 -1.5099,-0.1311 -1.9882,-0.29134 -0.4784,-0.16023 -1.9498,-0.41827 -3.2698,-0.57342 -2.739,-0.32193 -4.0648,-0.63677 -5.5546,-1.31904 -0.575,-0.2633 -1.5427,-0.67902 -2.1505,-0.92383 -0.6707,-0.27018 -1.2948,-0.81206 -1.5879,-1.37882 -0.3234,-0.62533 -0.7794,-0.99303 -1.3807,-1.11329 -0.8879,-0.17758 -1.7763,-1.08239 -1.7763,-1.80912 0,-0.20645 -0.6075,-0.98286 -1.35,-1.72536 -0.7425,-0.7425 -1.35,-1.60534 -1.35,-1.91743 0,-0.31209 -0.2943,-0.94162 -0.6541,-1.39896 -0.5727,-0.72818 -0.6753,-1.3275 -0.825,-4.8224 -0.119,-2.77862 -0.062,-4.24698 0.188,-4.83394 0.1974,-0.46368 0.2742,-1.11305 0.1706,-1.44305 -0.1035,-0.33 -0.1976,-1.05748 -0.2089,-1.61662 -0.032,-1.55156 -1.0809,-2.17484 -3.9666,-2.3559 -1.294,-0.0812 -2.6056,-0.32476 -2.9147,-0.54128 -0.3991,-0.2795 -0.7798,-0.31091 -1.3127,-0.10829 -0.9108,0.34629 -2.6263,0.0647 -3.1026,-0.5093 -0.1911,-0.23023 -0.7541,-0.41861 -1.2511,-0.41861 -1.8029,0 -4.896,-0.74223 -5.8898,-1.4133 -0.5592,-0.37769 -1.26,-0.6867 -1.5573,-0.6867 -0.2972,0 -0.6238,-0.135 -0.7258,-0.3 -0.102,-0.165 -0.4499,-0.3 -0.7732,-0.3 -0.6364,0 -3.181,-1.2272 -4.6206,-2.2284 -0.4915,-0.34188 -1.1665,-0.75968 -1.5,-0.92845 -0.3578,-0.1811 -0.73,-0.81718 -0.9084,-1.55219 -0.1662,-0.68494 -0.392,-1.33516 -0.5018,-1.44494 -0.272,-0.27199 0.012,-2.14587 0.5381,-3.54714 0.2376,-0.63312 0.8659,-1.51062 1.3963,-1.95 0.5304,-0.43939 1.251,-1.10263 1.6014,-1.47388 0.3503,-0.37125 0.9386,-0.675 1.3072,-0.675 0.3687,0 1.0486,-0.405 1.511,-0.9 0.4624,-0.495 1.0274,-0.9 1.2556,-0.9 0.2282,0 1.1482,-0.7425 2.0444,-1.65 0.8962,-0.9075 1.7495,-1.65 1.8963,-1.65 0.1467,0 0.8668,-0.405 1.6002,-0.9 0.7335,-0.495 1.4456,-0.9 1.5824,-0.9 0.1369,0 0.731,-0.58838 1.3202,-1.3075 0.5893,-0.71912 1.4493,-1.46441 1.9112,-1.65619 0.4618,-0.19177 1.1609,-0.8184 1.5534,-1.3925 0.517,-0.75613 0.936,-1.04381 1.5205,-1.04381 0.8501,0 3.8548,-0.80976 4.3658,-1.17655 0.165,-0.11845 0.84,-0.37301 1.5,-0.56569 3.2198,-0.94 4.3516,-1.34818 4.6129,-1.66365 0.275,-0.3319 0.6168,-3.84598 0.6192,-6.36501 9e-4,-0.84447 0.1887,-1.39067 0.6095,-1.77149 0.3346,-0.30282 0.6084,-0.78313 0.6084,-1.06735 0,-0.28423 0.2025,-0.68484 0.45,-0.89024 0.2475,-0.20541 0.45,-0.7412 0.45,-1.19065 0,-0.93209 0.6607,-2.4209 1.6927,-3.81434 0.389,-0.52524 0.7073,-1.08542 0.7073,-1.24485 0,-0.69782 2.2133,-3.52014 2.9514,-3.76344 0.8449,-0.27854 2.2415,-1.2454 3.5482,-2.45637 0.4334,-0.4017 1.1396,-0.73239 1.5692,-0.73487 0.8797,-0.005 2.7509,-0.60317 3.3714,-1.07754 0.7284,-0.55697 3.5918,-1.31794 4.9592,-1.31794 0.7317,0 1.7475,-0.21567 2.2572,-0.47926 2.0652,-1.06797 13.117,-0.11936 14.728,1.26414 0.7006,0.60169 2.1948,1.39115 3.6087,1.90669 0.6277,0.22889 1.0592,0.78324 1.6882,2.16886 l 0.845,1.86138 -0.5804,1.35406 c -0.7374,1.7201 -1.0793,2.12413 -1.7977,2.12413 -0.318,0 -1.0646,0.4725 -1.6593,1.05 -0.5946,0.5775 -1.2041,1.05 -1.3544,1.05 -0.1503,0 -0.9275,0.56344 -1.7269,1.2521 -1.8881,1.62631 -2.0744,2.49874 -0.935,4.3787 0.4731,0.78056 0.947,1.70786 1.0532,2.06067 0.1063,0.35281 0.7382,1.00214 1.4043,1.44297 0.6661,0.44082 1.4852,1.26591 1.8201,1.83352 0.3349,0.56762 0.8341,1.03204 1.1094,1.03204 0.2753,0 1.1732,0.58698 1.9954,1.3044 1.1494,1.00299 1.8068,1.34071 2.8448,1.46156 0.7425,0.0864 2.1213,0.51362 3.0639,0.94931 0.9426,0.43565 1.8201,0.7637 1.95,0.72898 0.1299,-0.0347 0.5463,0.0423 0.9255,0.17107 0.4311,0.14646 0.8558,0.0961 1.1335,-0.13437 0.3134,-0.26004 1.1446,-0.31458 2.8225,-0.18518 1.6839,0.12985 2.7983,0.056 3.8165,-0.25295 0.791,-0.23997 1.7371,-0.43779 2.1026,-0.43958 0.3654,-0.002 0.8089,-0.27324 0.9855,-0.60324 0.1766,-0.33 0.4745,-0.6 0.6619,-0.6 0.5978,0 1.4381,-0.96986 1.4381,-1.65977 0,-0.36672 0.2012,-0.83374 0.4471,-1.03783 0.4532,-0.37608 0.3528,-1.59104 -0.1887,-2.2834 -0.146,-0.18673 -0.1246,-1.49432 0.049,-3 0.5586,-4.84001 0.605,-7.4093 0.1714,-9.48164 -0.2296,-1.09732 -0.5072,-2.14036 -0.6169,-2.31787 -0.1097,-0.1775 -0.2651,-1.2207 -0.3453,-2.31822 -0.1353,-1.85175 -0.242,-2.10246 -1.4813,-3.48082 -0.7345,-0.81694 -1.3354,-1.59926 -1.3354,-1.73849 0,-0.38738 -2.5887,-2.08196 -3.1805,-2.08196 -0.2872,0 -0.7836,-0.23625 -1.103,-0.525 -0.4867,-0.43991 -1.1712,-0.52425 -4.2237,-0.52037 l -3.6428,0.005 -2.6859,1.27911 c -1.4772,0.70351 -2.8504,1.21596 -3.0516,1.13878 -0.2011,-0.0772 -0.731,-0.78987 -1.1774,-1.58374 -0.4465,-0.79388 -1.0645,-1.8092 -1.3735,-2.25626 -0.3089,-0.44706 -0.5616,-1.13761 -0.5616,-1.53454 0,-0.39693 -0.27,-1.06494 -0.6,-1.48446 -0.33,-0.41953 -0.6,-0.95074 -0.6,-1.18046 0,-0.22973 -0.1254,-0.54593 -0.2787,-0.70268 -0.1533,-0.15675 -0.4485,-1.65768 -0.6561,-3.3354 -0.2904,-2.34619 -0.2969,-3.31579 -0.028,-4.2 0.192,-0.63228 0.4105,-2.1621 0.4856,-3.3996 0.1121,-1.84769 0.328,-2.60911 1.207,-4.2584 0.5888,-1.10463 1.0705,-2.1475 1.0705,-2.31749 0,-0.17 0.405,-1.19335 0.9,-2.27411 0.495,-1.08077 0.9007,-2.0629 0.9016,-2.18251 9e-4,-0.11962 0.7884,-1.04045 1.7501,-2.04629 0.9618,-1.00584 1.8343,-2.05209 1.9391,-2.325 0.1047,-0.27291 0.3814,-0.4962 0.6149,-0.4962 0.2335,0 0.9124,-0.54 1.5086,-1.2 0.5963,-0.66 1.2243,-1.2 1.3955,-1.2 0.5971,0 1.7902,-0.9727 1.7902,-1.4595 0,-0.47765 1.8084,-2.1405 2.3279,-2.1405 0.1429,0 0.6564,-0.41992 1.141,-0.93315 0.8887,-0.94117 4.7218,-2.96685 5.6141,-2.96685 0.2649,0 0.5663,-0.13705 0.6698,-0.30455 0.1035,-0.1675 0.6651,-0.50377 1.2478,-0.74727 0.5828,-0.2435 1.7065,-0.98436 2.4972,-1.64636 0.7907,-0.662 1.8553,-1.37927 2.3659,-1.59393 1.383,-0.58151 4.5819,-3.78472 5.4271,-5.43437 0.4074,-0.79523 1.0824,-1.65372 1.5,-1.90775 2.1718,-1.32118 3.0068,-1.98819 2.7768,-2.21818 -0.4083,-0.40829 -2.1607,0.079 -2.4888,0.69204 -0.3225,0.60264 -1.6171,0.7647 -1.9396,0.24281 -0.1959,-0.31697 -1.516,-0.17453 -2.6892,0.29017 -1.5358,0.60834 -2.6616,0.89379 -2.9129,0.73854 -0.1512,-0.0935 -0.5439,0.0736 -0.8728,0.37114 -0.4985,0.45117 -0.697,0.47914 -1.1947,0.16835 -0.9097,-0.56815 -2.6512,-0.13814 -2.9838,0.73681 -0.149,0.3919 -0.3755,0.72294 -0.5034,0.73564 -0.1278,0.0127 -0.7049,0.0802 -1.2824,0.14996 -0.5775,0.0698 -1.3787,0.13962 -1.7804,0.1552 -0.4017,0.0156 -1.4648,0.35309 -2.3623,0.75004 -0.8976,0.39694 -1.8648,0.72171 -2.1495,0.72171 -0.2846,0 -1.1116,0.40254 -1.8376,0.89454 -0.7261,0.492 -1.5743,0.897 -1.8848,0.9 -0.8799,0.009 -2.5685,1.13505 -4.5354,3.02574 -0.99,0.95164 -2.217,1.97764 -2.7266,2.27999 -2.5738,1.52693 -3.4082,2.2151 -6.0223,4.96671 -0.3568,0.37566 -1.2152,1.08802 -1.9075,1.58302 -1.6721,1.19571 -6.8936,6.29449 -6.8936,6.73164 0,0.18955 -0.675,1.15574 -1.5,2.14708 -1.0439,1.25444 -1.5,2.06803 -1.5,2.67604 0,0.67286 -0.2573,1.04844 -1.1196,1.63442 -0.6158,0.41845 -1.2868,0.76082 -1.4911,0.76082 -0.2042,0 -0.6739,0.40922 -1.0437,0.90938 -0.3697,0.50016 -1.3184,1.32401 -2.1082,1.83078 -0.7897,0.50677 -1.7894,1.3463 -2.2214,1.86562 -1.0013,1.20345 -6.7854,7.38004 -12.5306,13.38093 -2.4556,2.56481 -5.2173,5.54079 -6.1372,6.61329 -0.92,1.0725 -2.8934,3.2371 -4.3854,4.81023 -1.492,1.57312 -4.1285,4.5217 -5.8587,6.55239 -1.7303,2.0307 -3.384,3.8196 -3.675,3.97533 -0.291,0.15574 -0.5291,0.48425 -0.5291,0.73003 0,0.24578 -0.3375,0.57519 -0.75,0.73202 -0.4125,0.15683 -0.75,0.44677 -0.75,0.6443 0,0.19753 -0.6438,1.11212 -1.4307,2.03242 -0.7869,0.92031 -1.8331,2.26811 -2.325,2.99514 -0.4919,0.72702 -1.0968,1.61404 -1.3443,1.97116 -0.2475,0.35711 -0.8891,1.31478 -1.4259,2.12814 -0.5367,0.81336 -1.583,1.95071 -2.325,2.52744 -0.742,0.57674 -1.35,1.18424 -1.351,1.35001 0,0.58156 -2.5173,3.22767 -4.944,5.20477 -1.3478,1.09813 -3.7157,3.0766 -5.2619,4.3966 -6.2183,5.30871 -12.0572,10.34123 -14.9669,12.9 -1.6887,1.485 -3.6474,3.1725 -4.3527,3.75 -0.7054,0.5775 -2.754,2.31282 -4.5525,3.85627 -1.7986,1.54345 -4.398,3.77095 -5.7765,4.95 -1.3785,1.17905 -3.8266,3.31165 -5.4403,4.73911 -1.6137,1.42745 -3.3208,2.84237 -3.7936,3.14425 -0.4728,0.30188 -1.8269,1.29396 -3.009,2.20462 -1.1821,0.91066 -2.9034,2.19166 -3.825,2.84668 -0.9216,0.65501 -1.6757,1.29279 -1.6757,1.41729 0,0.1245 -0.4345,0.45104 -0.9655,0.72563 -0.531,0.2746 -2.198,1.72931 -3.7045,3.23271 -1.5065,1.50339 -3.8058,3.70029 -5.1096,4.88201 -1.3037,1.18171 -3.8554,3.495 -5.6704,5.14063 -4.1288,3.74349 -8.4278,8.17074 -9.7452,10.03584 -0.5536,0.7837 -1.1262,1.425 -1.2726,1.425 -0.3537,0 -2.0102,1.7924 -2.3565,2.55 -0.3839,0.8397 -0.8173,1.5094 -2.4507,3.7867 -0.7837,1.0926 -1.425,2.1342 -1.425,2.3145 0,0.1803 -0.3762,0.7713 -0.8361,1.3133 -1.2343,1.4548 -4.8639,7.0624 -4.8639,7.5146 0,0.1519 -0.27,0.6195 -0.6,1.039 -0.33,0.4195 -0.6,1.0666 -0.6,1.438 0,0.3714 -0.2017,1.062 -0.4481,1.5346 -0.4719,0.9047 -0.6616,5.9484 -0.2166,5.7593 0.5264,-0.2238 5.7837,-6.2891 9.5646,-11.0346 1.5503,-1.9459 6.8466,-6.6137 8.5272,-7.5154 0.4613,-0.2475 2.2977,-1.8121 4.0808,-3.4769 4.4684,-4.1717 7.0065,-6.414 7.8921,-6.9724 0.9792,-0.6173 5.666,-4.8241 9.45,-8.48209 1.65,-1.59506 3.2776,-2.98384 3.617,-3.08617 0.3393,-0.10234 1.6115,-1.29901 2.827,-2.65927 1.2156,-1.36027 4.2455,-4.10607 6.7331,-6.10179 4.9812,-3.99627 8.0261,-6.72152 10.9455,-9.79642 1.0574,-1.11375 2.142,-2.025 2.4102,-2.025 0.2682,0 1.221,-0.7425 2.1172,-1.65 1.9651,-1.98986 2.5156,-2.12116 2.2169,-0.52881 -0.1557,0.82994 -0.6048,1.4729 -1.7286,2.47501 -1.4371,1.28148 -4.7053,4.31426 -7.6883,7.13446 -0.7425,0.70198 -3.3213,3.0635 -5.7306,5.24783 -6.9526,6.30333 -15.8048,14.63293 -18.4523,17.36285 -1.3381,1.3798 -3.0593,3.1132 -3.825,3.8521 -0.7656,0.7389 -1.3921,1.4478 -1.3921,1.5755 0,0.1276 -2.0058,2.2231 -4.4573,4.6566 -2.4515,2.4334 -5.1638,5.3357 -6.0273,6.4495 -0.8636,1.1137 -1.7284,2.025 -1.9217,2.025 -0.1934,0 -0.9059,0.7087 -1.5833,1.575 -2.7103,3.4656 -5.2127,6.0615 -13.4051,13.9058 -3.8798,3.7148 -4.106,3.995 -4.1184,5.1 -0.026,2.293 -0.4805,3.7441 -1.4519,4.6314 -0.5143,0.4697 -0.935,1.1526 -0.935,1.5175 0,0.365 -0.3396,1.1089 -0.7547,1.6531 -0.4151,0.5443 -0.8356,1.3939 -0.9345,1.888 -0.099,0.4942 -0.4342,1.1288 -0.7452,1.4103 -0.3111,0.2815 -0.5656,0.7108 -0.5656,0.954 0,0.2432 -0.4653,0.9571 -1.0339,1.5866 -0.9516,1.0532 -1.009,1.2234 -0.7209,2.1363 0.3787,1.2005 0.9857,3.4117 1.5507,5.649 0.5316,2.1055 1.2974,3.593 1.8498,3.593 0.2366,0 1.0743,-0.7088 1.8616,-1.575 5.64,-6.2064 16.882,-17.625 17.3523,-17.625 0.4962,0 3.4404,-3.1698 3.4404,-3.7041 0,-0.407 3.8759,-4.6646 7.8171,-8.5869 0.9169,-0.9124 2.023,-2.1267 2.458,-2.6984 0.5315,-0.6984 1.067,-1.0594 1.6329,-1.1006 0.4631,-0.034 0.9353,-0.072 1.0494,-0.086 0.114,-0.013 0.7873,-0.7669 1.496,-1.6744 0.7088,-0.9075 1.4297,-1.65 1.602,-1.65 0.3892,0 3.3294,-3.0325 4.5086,-4.65 1.0634,-1.4586 2.8554,-3.1466 3.3427,-3.1486 0.1962,-9e-4 1.3338,-1.1489 2.528,-2.5514 1.1942,-1.4025 2.2555,-2.55 2.3583,-2.55 0.1029,0 0.3346,0.1476 0.5149,0.3279 0.4591,0.4591 1.6177,-0.3496 2.664,-1.8595 0.4585,-0.6617 1.9912,-2.2959 3.4059,-3.6315 1.4147,-1.3356 2.6438,-2.703 2.7312,-3.0385 0.088,-0.3371 0.5219,-0.7071 0.9701,-0.8269 1.1532,-0.3085 6.9463,-5.61844 9.5946,-8.79456 0.4104,-0.49214 0.8764,-0.7814 1.068,-0.66296 0.3989,0.24655 -1.0775,2.41601 -2.8451,4.18062 -0.6306,0.62953 -1.8869,1.912 -2.7916,2.85 -0.9048,0.938 -3.8748,3.9443 -6.6,6.6808 -2.7253,2.7364 -9.1286,9.3176 -14.2296,14.625 -5.101,5.3073 -9.3895,9.6496 -9.5299,9.6496 -0.427,0 -4.723,4.5549 -4.9276,5.2245 -0.2629,0.8605 -2.1753,3.1755 -2.6233,3.1755 -0.2009,0 -1.8456,1.7728 -3.6549,3.9396 -1.8093,2.1667 -4.3994,5.2379 -5.7557,6.825 -1.3563,1.587 -2.7292,3.4254 -3.0508,4.0854 -0.3217,0.66 -1.5069,2.2934 -2.634,3.6298 -1.1271,1.3364 -2.7242,3.4085 -3.5492,4.6048 -0.825,1.1962 -2.2303,3.2078 -3.1229,4.4702 -1.0559,1.49337 -1.7102,2.76677 -1.873,3.64517 -0.1376,0.7425 -0.3769,1.62 -0.5317,1.95 -0.2707,0.577 -0.6195,2.212 -0.672,3.15 -0.064,1.151 0.6257,5.4961 0.9197,5.7901 0.1814,0.1814 0.3299,0.552 0.3299,0.8234 0,0.2714 0.2407,0.7114 0.535,0.9777 0.2942,0.2662 1.067,1.5184 1.7174,2.7826 0.6598,1.2827 1.6037,2.6198 2.1358,3.0257 0.5244,0.4 1.036,1.056 1.1368,1.4578 0.3038,1.2104 1.8494,2.5857 2.6734,2.3788 0.8261,-0.2073 1.7016,0.8636 1.7016,2.0814 0,0.5288 0.2686,0.8726 0.9461,1.2105 0.5203,0.2596 1.1333,0.472 1.3621,0.472 0.2289,0 0.8198,0.2985 1.3132,0.6633 l 0.8971,0.6632 1.1116,-0.5882 c 1.175,-0.6218 5.1391,-4.4664 6.9477,-6.7383 0.5911,-0.7425 2.0785,-2.3982 3.3054,-3.6793 1.2268,-1.2812 2.4438,-2.6312 2.7045,-3 0.2606,-0.3689 1.8622,-2.0882 3.5591,-3.8207 1.6968,-1.7325 4.5413,-4.635 6.3211,-6.45 1.7798,-1.815 4.52,-4.8525 6.0894,-6.74997 1.5695,-1.8975 3.1436,-3.7072 3.4981,-4.0215 0.3545,-0.3143 0.6446,-0.742 0.6446,-0.9504 0,-0.2084 0.6853,-0.9637 1.5229,-1.6785 0.8376,-0.7148 2.2075,-2.0083 3.0442,-2.8746 0.9186,-0.951 1.7798,-1.575 2.1738,-1.575 0.6806,0 2.7726,-2.1867 5.2379,-5.475 0.7113,-0.9487 1.4458,-1.7277 1.6323,-1.7311 0.1864,0 1.3514,-1.2439 2.5889,-2.7569 1.2375,-1.513 2.5986,-3.0965 3.0247,-3.5189 1.2107,-1.2004 7.1317,-7.7409 9.1145,-10.0681 0.9841,-1.155 2.1592,-2.505 2.6114,-3 0.4522,-0.495 2.0545,-2.2861 3.5607,-3.9802 1.5062,-1.6941 3.0986,-3.2746 3.5386,-3.5123 0.4401,-0.2377 1.5282,-1.2479 2.418,-2.2448 0.8898,-0.997 1.7336,-1.8127 1.875,-1.8127 0.3563,0 0.3242,1.1232 -0.038,1.3473 -0.3003,0.1856 -5.4606,6.034 -7.0171,7.9527 -0.4685,0.5775 -1.8865,2.13 -3.1512,3.45 -1.2647,1.32 -3.174,3.4591 -4.2428,4.7534 -1.0688,1.2944 -2.5507,3.0753 -3.2932,3.9576 -0.7425,0.8823 -2.16,2.5718 -3.15,3.7544 -0.99,1.1825 -2.4439,2.9116 -3.2308,3.8424 -0.7869,0.9307 -1.8193,2.2705 -2.2941,2.9772 -0.4748,0.7068 -1.4521,1.8543 -2.1718,2.55 -1.5433,1.4921 -6.9565,7.5827 -8.4567,9.515 -0.5765,0.7425 -1.5879,1.8629 -2.2475,2.4897 -1.4119,1.3417 -5.7491,6.62187 -5.7493,6.99957 -10e-5,0.1434 -1.1599,1.5432 -2.5774,3.1107 -1.4175,1.5675 -2.9974,3.4575 -3.5111,4.2 -0.5136,0.7425 -1.885,2.6157 -3.0476,4.1626 -6.5759,8.7498 -9.617,13.622 -11.2586,18.0374 -0.4146,1.1153 -3.8122,8.0433 -4.193,8.55 -0.5094,0.6778 -0.5511,1.8101 -0.1147,3.1158 0.6813,2.0387 2.4607,5.7441 3.2843,6.8392 0.3951,0.5252 0.7183,1.0715 0.7183,1.214 0,0.5119 4.5709,4.4455 5.9456,5.1167 0.7724,0.3771 2.8219,1.0431 4.5544,1.48 2.7525,0.6941 3.7301,0.792 7.7482,0.7761 2.9765,-0.012 4.717,-0.1371 4.935,-0.355 0.1852,-0.1853 1.0415,-0.3368 1.9029,-0.3368 1.5522,0 1.5824,-0.018 3.4012,-2.025 1.0094,-1.1137 2.1161,-2.6325 2.4594,-3.375 0.3434,-0.7425 0.722,-1.5525 0.8414,-1.8 0.1195,-0.2475 0.5683,-0.6224 0.9974,-0.8332 0.4291,-0.2107 1.3617,-1.1897 2.0723,-2.1756 0.7107,-0.9859 1.7984,-2.431 2.4172,-3.2113 0.6187,-0.7804 1.125,-1.5692 1.125,-1.7529 0,-0.1837 0.2884,-0.5912 0.641,-0.9055 0.8574,-0.7644 6.2466,-8.811 6.8504,-10.2283 0.1539,-0.3612 0.5565,-0.8048 0.8946,-0.9857 0.3381,-0.181 0.9557,-0.9654 1.3724,-1.7433 0.4166,-0.7778 1.0255,-1.8192 1.3531,-2.3142 0.3275,-0.495 0.6728,-1.1198 0.7674,-1.3884 0.095,-0.2687 0.4878,-0.6324 0.874,-0.8083 0.6981,-0.3181 2.1805,-2.2548 4.5237,-5.91 0.6746,-1.0524 1.6871,-2.4354 2.25,-3.0732 0.5628,-0.6379 2.1709,-2.7594 3.5734,-4.7146 1.4025,-1.9551 3.2181,-4.3689 4.0348,-5.3639 0.8167,-0.9951 1.9642,-2.507 2.55,-3.3599 0.5858,-0.8529 1.973,-2.7142 3.0825,-4.1361 1.5901,-2.03777 3.1716,-4.27047 3.7046,-5.22997 0.026,-0.046 0.3421,-0.1413 0.7028,-0.2107 0.7585,-0.1461 1.5913,-1.0406 2.4256,-2.6053 0.3227,-0.6052 1.0284,-1.7308 1.5682,-2.5014 0.5398,-0.7706 1.1187,-1.6386 1.2863,-1.9289 0.1677,-0.2904 0.7476,-1.1222 1.2888,-1.8486 0.5411,-0.7264 2.0047,-2.7044 3.2526,-4.3957 1.2478,-1.6912 2.4566,-3.075 2.6862,-3.075 0.6193,0 0.5057,1.0272 -0.1824,1.65 -0.3878,0.3509 -0.6003,0.9246 -0.6006,1.6215 -6e-4,0.8267 -0.4033,1.6536 -1.725,3.5417 -3.773,5.3893 -4.7357,6.8489 -4.9977,7.5772 -0.1504,0.4178 -0.8254,1.4853 -1.5,2.3724 -2.1263,2.7953 -2.5767,3.4609 -2.5767,3.8072 0,0.1854 -0.2719,0.5831 -0.6043,0.8838 -0.3323,0.30077 -1.0982,1.30047 -1.702,2.22147 -0.6038,0.9211 -1.7296,2.4172 -2.5017,3.3247 -0.7721,0.9075 -1.7429,2.192 -2.1572,2.8544 -0.4143,0.6624 -0.9741,1.3877 -1.244,1.6117 -0.27,0.2241 -0.4908,0.5349 -0.4908,0.6907 0,0.1558 -0.3375,0.7257 -0.75,1.2665 -0.4125,0.5409 -0.75,1.0654 -0.75,1.1657 0,0.3444 -2.7465,4.111 -2.9977,4.111 -0.379,0 -2.4023,2.862 -2.4023,3.3981 0,0.658 -1.1399,2.5146 -1.6684,2.7174 -0.2423,0.093 -0.5718,0.4763 -0.7321,0.8518 -0.1603,0.3755 -1.2329,2.1002 -2.3835,3.8327 -1.1507,1.7325 -2.6397,4.0275 -3.3091,5.1 -0.6693,1.0725 -1.7547,2.8073 -2.412,3.8551 -0.6572,1.0478 -1.1952,2.1278 -1.1955,2.4 -6e-4,0.4661 -1.128,2.3018 -3.6873,6.0036 -0.6117,0.8847 -1.1121,1.9535 -1.1121,2.3751 0,0.6729 -1.9435,3.9672 -6.3672,10.7925 -2.2994,3.548 -3.8222,6.2408 -3.8274,6.7687 0,0.2998 0.3321,0.9875 0.7446,1.5283 0.4125,0.5408 0.75,1.1816 0.75,1.4239 0,0.2423 0.3952,0.8192 0.8782,1.282 0.483,0.4627 1.1652,1.5342 1.5161,2.3811 0.3508,0.8468 0.7548,1.8097 0.8978,2.1397 0.143,0.33 0.3306,1.1114 0.4169,1.7365 0.086,0.6251 0.5021,1.5467 0.924,2.048 0.4218,0.5014 0.767,1.0871 0.767,1.3018 0,0.2146 0.2025,0.5583 0.45,0.7637 0.2475,0.2054 0.45,0.6312 0.45,0.9461 0,0.315 0.1962,0.648 0.4361,0.7401 0.2399,0.092 0.7462,0.6533 1.125,1.2471 1.2056,1.8899 1.2869,1.998 2.2719,3.0234 0.5318,0.5537 0.967,1.2545 0.967,1.5573 0,0.3028 0.127,0.6291 0.2823,0.7251 0.1553,0.096 0.594,0.8084 0.975,1.5832 0.6273,1.2758 7.3257,8.4777 7.885,8.4777 0.1201,0 1.1302,0.8443 2.2448,1.8762 1.1145,1.0319 2.4171,2.0607 2.8946,2.2863 0.4776,0.2256 1.5085,0.7313 2.2911,1.1238 0.7825,0.3926 1.6858,0.7137 2.0073,0.7137 0.3214,0 0.6704,0.1391 0.7755,0.3092 0.1092,0.1766 0.618,0.2291 1.1863,0.1225 0.6573,-0.1233 1.2351,-0.032 1.7017,0.2695 1.1836,0.7643 6.1577,1.0996 9.4799,0.639 0.7005,-0.097 1.6455,-0.4869 2.1,-0.8663 0.4967,-0.4146 1.4249,-0.7663 2.3265,-0.8816 3.1678,-0.4051 4.8306,-0.7135 5.6446,-1.0466 0.6103,-0.2499 1.0122,-0.2561 1.4484,-0.023 0.6976,0.3733 1.4574,0.1705 1.4561,-0.3887 -6e-4,-0.2114 0.3519,-1.2619 0.783,-2.3344 0.4311,-1.0725 0.9951,-2.49 1.2534,-3.15 0.2582,-0.66 0.7834,-1.9127 1.167,-2.7839 0.3836,-0.8711 0.6968,-1.8161 0.696,-2.1 -10e-4,-0.4343 0.454,-2.0124 1.144,-3.9661 0.087,-0.2475 0.3281,-0.99 0.5349,-1.65 0.8984,-2.8682 1.6057,-4.4867 2.1532,-4.9273 0.323,-0.26 0.8115,-1.1477 1.0854,-1.9727 1.7437,-5.2517 2.7079,-8.4185 3.4729,-11.406 0.4789,-1.8698 1.0767,-4.0508 1.3287,-4.8468 0.2519,-0.796 0.7394,-2.6622 1.0832,-4.1472 0.8952,-3.8662 1.2527,-5.0367 1.7025,-5.5736 0.2181,-0.2605 0.3967,-0.6474 0.3967,-0.8598 0,-0.4862 0.8558,-3.1311 1.4615,-4.5166 0.2524,-0.5775 0.6102,-1.7925 0.7949,-2.7 0.2691,-1.3213 0.4961,-1.728 1.1398,-2.0414 0.5011,-0.2439 0.8078,-0.6394 0.8144,-1.05 0.01,-0.3622 0.2036,-0.9961 0.4394,-1.4086 0.2358,-0.4125 0.4335,-0.9775 0.4393,-1.2555 0.01,-0.278 0.1622,-0.8855 0.3475,-1.35 0.1853,-0.4645 0.9083,-2.4839 1.6068,-4.4875 0.6985,-2.0037 1.5594,-4.0495 1.9132,-4.5463 0.3537,-0.4968 0.6437,-1.085 0.6443,-1.307 6e-4,-0.222 0.2706,-0.8457 0.6,-1.386 0.3294,-0.5402 0.5989,-1.3085 0.5989,-1.7072 0,-0.8029 0.5047,-1.2757 0.9193,-0.8612 0.156,0.1561 -0.028,1.1365 -0.4422,2.3589 -0.39,1.1505 -0.8019,2.4924 -0.9152,2.9821 -0.1134,0.4897 -0.5622,1.6372 -0.9973,2.55 -0.4731,0.9925 -0.8144,2.2627 -0.8491,3.1597 -0.032,0.825 -0.4935,2.9175 -1.0257,4.65 -0.9893,3.2205 -1.4152,4.8536 -2.2298,8.55 -0.2546,1.155 -0.5847,2.37 -0.7336,2.7 -0.2754,0.6102 -0.5375,1.6496 -1.3616,5.4 -0.5007,2.2789 -1.3395,5.1013 -2.4962,8.4 -0.405,1.155 -0.9296,2.91 -1.1657,3.9 -0.2361,0.99 -0.6239,2.2212 -0.8617,2.7359 -0.2378,0.5148 -0.5721,1.9323 -0.743,3.15 -0.1709,1.2178 -0.5611,2.7541 -0.8672,3.4141 -0.3061,0.66 -0.6519,1.6725 -0.7685,2.25 -0.1165,0.5775 -0.4007,1.725 -0.6315,2.55 -1.0849,3.8785 -3.1833,12.9748 -3.2791,14.2144 -0.059,0.762 -0.537,2.9192 -1.0626,4.7937 -0.7688,2.7422 -0.8917,3.5481 -0.6289,4.125 0.1797,0.3943 0.5278,0.7169 0.7737,0.7169 0.2458,0 1.0016,0.7508 1.6796,1.6685 0.6779,0.9177 1.9476,2.126 2.8216,2.685 0.8739,0.5591 1.6693,1.2257 1.7674,1.4815 0.098,0.2557 0.3792,0.465 0.6245,0.465 0.2454,0 0.9434,0.3375 1.5513,0.75 0.6079,0.4125 1.2679,0.75 1.4668,0.75 0.1989,0 0.606,0.27 0.9047,0.6 0.2986,0.33 0.8045,0.6 1.1241,0.6 0.3197,0 0.9245,0.27 1.344,0.6 0.4195,0.33 1.0066,0.6 1.3046,0.6 0.298,0 0.6253,0.135 0.7273,0.3 0.1019,0.165 0.4137,0.303 0.6927,0.3067 0.279,0 0.8448,0.2706 1.2573,0.5933 0.4125,0.3226 1.0491,0.5896 1.4148,0.5933 0.6175,0.01 1.5944,0.3591 3.8352,1.3853 1.5519,0.7108 5.9762,2.2184 6.5148,2.2199 0.2831,0 0.9581,0.1925 1.5,0.426 2.8738,1.2384 4.1876,1.6755 5.0355,1.6755 0.5165,0 1.2051,0.1423 1.5302,0.3163 1.3227,0.708 15.5204,0.9476 17.9695,0.3034 z m 71.6353,-7.7224 c 1.3669,-0.1033 2.5561,-0.3025 2.6427,-0.4426 0.087,-0.1401 0.4953,-0.2547 0.9083,-0.2547 1.7278,0 9.2343,-2.7871 11.11,-4.125 0.5205,-0.3713 1.0839,-0.675 1.252,-0.675 0.1681,0 0.6873,-0.3145 1.1537,-0.699 0.4664,-0.3844 1.0505,-0.7947 1.298,-0.9117 0.9913,-0.4689 1.7561,-0.9964 3.2107,-2.2143 0.8374,-0.7013 1.6691,-1.275 1.8482,-1.275 0.1792,0 0.5179,-0.3716 0.7527,-0.8257 0.2348,-0.4542 0.7108,-1.0826 1.0577,-1.3965 0.3469,-0.314 0.6307,-0.7099 0.6307,-0.88 0,-0.451 1.2397,-1.6978 1.6882,-1.6978 0.211,0 0.6158,-0.5063 0.8996,-1.125 0.2838,-0.6188 1.6892,-2.2725 3.1231,-3.675 1.4339,-1.4025 2.6899,-2.789 2.791,-3.081 0.2557,-0.7386 2.4319,-3.9076 3.0166,-4.3928 0.2648,-0.2198 0.4815,-0.6966 0.4815,-1.0595 0,-0.3629 0.4013,-1.1901 0.8917,-1.8383 0.4904,-0.6481 0.8954,-1.404 0.9,-1.6798 0.01,-0.2757 -0.8866,-2.2332 -1.9803,-4.35 -1.0937,-2.1167 -3.2969,-6.4136 -4.896,-9.5486 -1.599,-3.135 -3.2486,-6.24 -3.6658,-6.9 -0.4172,-0.66 -1.04,-1.8381 -1.384,-2.6179 -0.344,-0.7798 -1.4132,-2.6698 -2.3759,-4.2 -2.0495,-3.2575 -2.2508,-3.594 -3.101,-5.1821 -0.3534,-0.66 -0.9633,-1.5402 -1.3555,-1.956 -0.4979,-0.5278 -0.6593,-0.9618 -0.5348,-1.438 0.1293,-0.4944 -0.245,-1.3751 -1.36,-3.1997 -0.9966,-1.6308 -1.5384,-2.8518 -1.5384,-3.4666 0,-0.6198 -0.5985,-1.9538 -1.725,-3.8445 -0.9487,-1.5924 -1.876,-3.3031 -2.0605,-3.8016 -0.3679,-0.9937 -1.5992,-3.0993 -3.6305,-6.2082 -1.0627,-1.6265 -1.2574,-2.1246 -1.0106,-2.5857 0.2439,-0.4557 -10e-4,-1.1702 -1.2147,-3.5354 -0.8362,-1.6304 -1.8246,-3.3693 -2.1964,-3.8643 -0.3718,-0.495 -0.7681,-1.1916 -0.8807,-1.5479 -0.1127,-0.3564 -0.4021,-0.8117 -0.6432,-1.0118 -0.5014,-0.4161 -0.5826,-1.3658 -0.1402,-1.6392 0.5504,-0.3402 2.3831,1.3657 2.694,2.5076 0.293,1.0763 1.349,2.9486 3.2089,5.6896 0.5231,0.7709 1.6518,2.6167 2.5082,4.1017 0.8564,1.485 1.8642,3.0375 2.2394,3.45 0.3753,0.4125 1.3301,1.8975 2.1219,3.3 1.6446,2.9133 6.7208,11.4283 8.6739,14.55 0.7226,1.155 1.8295,2.9594 2.4597,4.0098 0.6302,1.0503 1.4833,2.3228 1.8958,2.8276 0.8208,1.0044 1.5123,2.0783 4.618,7.1713 4.445,7.2895 10.8228,16.5075 13.6075,19.6673 l 1.1245,1.2759 3.21,0.29 c 2.6014,0.235 3.4044,0.2088 4.2355,-0.1385 0.6213,-0.2596 1.4577,-0.3584 2.1218,-0.2506 0.7894,0.1281 1.2491,0.04 1.642,-0.316 0.3002,-0.2716 1.6687,-0.8203 3.0411,-1.2193 1.3725,-0.3991 2.8734,-1.005 3.3354,-1.3465 0.464,-0.3431 1.2989,-0.621 1.8653,-0.621 0.564,0 1.1905,-0.199 1.3923,-0.4421 0.2018,-0.2431 0.8596,-0.5236 1.4618,-0.6233 2.7109,-0.4489 3.433,-0.8173 8.862,-4.521 0.5131,-0.35 1.19,-0.9238 1.5043,-1.275 0.3143,-0.3513 0.7425,-0.6386 0.9515,-0.6386 0.209,0 1.3693,-0.9572 2.5785,-2.127 1.2092,-1.1699 2.6373,-2.4684 3.1735,-2.8856 0.5363,-0.4173 0.975,-0.9199 0.975,-1.1169 0,-0.197 0.4165,-0.7548 0.9255,-1.2394 0.5091,-0.4846 1.6436,-1.8326 2.5212,-2.9955 0.8776,-1.1629 1.8076,-2.2902 2.0666,-2.5051 0.259,-0.215 0.5569,-0.8835 0.662,-1.4857 0.1051,-0.6021 0.456,-2.0398 0.7797,-3.1948 0.3238,-1.155 0.7081,-2.8425 0.854,-3.75 0.146,-0.9075 0.4828,-2.595 0.7485,-3.75 0.2656,-1.155 0.6066,-2.775 0.7578,-3.6 0.1511,-0.825 0.4061,-2.1075 0.5667,-2.85 0.5409,-2.5019 0.4012,-3.1359 -1.419,-6.4352 -1.905,-3.4529 -3.4541,-5.5052 -7.158,-9.4833 -1.3447,-1.4443 -3.0035,-3.4485 -3.6861,-4.4538 -0.6827,-1.0052 -1.353,-1.8277 -1.4897,-1.8277 -0.1367,0 -1.0613,-0.9788 -2.0549,-2.175 -0.9935,-1.1963 -2.4477,-2.85 -3.2316,-3.675 -0.7838,-0.825 -1.9129,-2.1072 -2.5089,-2.8493 -0.5961,-0.742 -3.3788,-3.7839 -6.1838,-6.7597 -7.9647,-8.44957 -14.2842,-15.70147 -15.1549,-17.39077 -0.7048,-1.3674 -4.0226,-5.363 -7.0984,-8.5486 -3.0518,-3.1607 -4.8967,-5.2328 -4.8967,-5.4997 0,-0.4288 -2.6091,-3.8902 -5.7723,-7.6578 -1.5186,-1.8087 -1.7131,-2.3534 -0.9458,-2.6479 0.3466,-0.133 1.9388,1.3016 5.6707,5.1094 2.8538,2.9119 5.3741,5.2944 5.6006,5.2944 0.5661,0 11.0412,10.1496 12.983,12.5798 0.8659,1.0836 5.4924,5.8935 10.281,10.6888 4.7886,4.7952 8.809,9.04767 8.9342,9.44997 0.3181,1.0222 4.1794,5.1838 12.7486,13.7403 10.962,10.9456 13.2317,13.0421 15.8565,14.6465 l 1.0065,0.6152 1.8435,-0.9208 c 2.3808,-1.1891 3.1234,-1.7037 6.198,-4.2957 3.1183,-2.6288 6.8882,-6.486 7.7362,-7.9155 0.3463,-0.5838 1.1777,-1.3695 1.8476,-1.746 0.6699,-0.3765 1.4102,-1.0562 1.6451,-1.5104 0.2349,-0.4543 0.6385,-1.0014 0.8968,-1.2158 0.2584,-0.2144 0.4698,-0.5849 0.4698,-0.8232 0,-0.2383 0.3375,-0.8757 0.75,-1.4166 0.4125,-0.5408 0.75,-1.1237 0.75,-1.2954 0,-0.1717 0.337,-0.533 0.7489,-0.8029 0.7269,-0.4763 2.8511,-4.4719 2.8511,-5.3628 0,-0.2431 0.2141,-0.6197 0.4758,-0.8369 0.9207,-0.7641 2.219,-4.3028 2.2225,-6.05767 0,-0.456 0.121,-1.0635 0.2667,-1.35 0.5608,-1.1023 0.8996,-2.0549 1.0389,-2.9209 0.08,-0.495 0.3732,-1.98 0.6524,-3.3 0.2791,-1.32 0.5269,-3.5335 0.5506,-4.9189 l 0.043,-2.5188 -3.2359,-3.9312 c -4.0662,-4.9399 -4.4026,-5.3022 -6.634,-7.1468 -1.0066,-0.832 -3.2476,-2.8328 -4.9801,-4.4462 -1.7325,-1.6135 -4.807,-4.4646 -6.8323,-6.3359 -2.0252,-1.8712 -5.2537,-4.8562 -7.1745,-6.6333 -1.9206,-1.7771 -3.9761,-3.525 -4.5677,-3.8841 -1.2249,-0.7437 -6.5483,-5.3159 -8.1255,-6.9789 -0.5775,-0.6089 -1.4212,-1.3016 -1.875,-1.5392 -0.4537,-0.2377 -0.825,-0.6686 -0.825,-0.9577 0,-0.289 -0.2101,-0.8256 -0.467,-1.1923 -0.8644,-1.234 0.2515,-0.7613 2.8522,1.2083 1.3617,1.0312 2.6936,2.01 2.9598,2.175 0.2663,0.165 1.4026,1.0425 2.5253,1.95 1.1226,0.9075 2.8216,2.19 3.7756,2.85 1.9194,1.3279 9.3541,7.8932 9.3541,8.2602 0,0.1277 0.8247,0.8863 1.8326,1.6859 1.0079,0.7996 3.3367,2.7473 5.175,4.3282 3.82,3.2851 8.4406,6.6962 9.5133,7.0231 0.401,0.1222 1.1589,0.544 1.6841,0.9374 0.5252,0.3933 1.0434,0.7152 1.1514,0.7152 0.108,0 1.3658,1.0913 2.795,2.4252 1.4292,1.3338 3.43063,3.0248 4.44751,3.7577 1.71891,1.2388 1.94037,1.3179 3.14961,1.1245 1.73994,-0.2782 6.55149,-3.5931 6.55149,-4.5136 0,-0.2506 0.6075,-1.1314 1.35,-1.9572 0.91356,-1.0161 1.35,-1.7701 1.35,-2.3323 0,-0.457 0.20886,-1.0042 0.46413,-1.2161 0.92898,-0.7709 2.01936,-3.6355 2.16645,-5.6914 l 0.14397,-2.0121 -4.22457,-3.366 c -2.3235,-1.8513 -4.3059,-3.6223 -4.40529,-3.9354 -0.20172,-0.6357 -4.51539,-4.3691 -7.05015,-6.102 -1.76385,-1.2058 -7.31365,-5.4249 -10.20245,-7.7563 -0.9712,-0.7838 -1.8891,-1.425 -2.0399,-1.425 -0.1507,0 -1.0612,-0.945 -2.0233,-2.1 -0.9621,-1.155 -1.9281,-2.1 -2.1465,-2.1 -0.2185,0 -0.5134,-0.3038 -0.6553,-0.675 -0.2628,-0.6875 -3.6122,-3.89379 -7.348,-7.03421 -1.1389,-0.95744 -3.118,-2.68581 -4.398,-3.84081 -3.8932,-3.51322 -5.629,-5.0109 -7.1126,-6.1371 -0.7802,-0.59218 -1.8235,-1.45953 -2.3185,-1.92746 -1.5223,-1.43905 -5.3304,-4.43493 -6.0595,-4.76713 -0.7684,-0.35014 -0.9378,-1.11831 -0.2466,-1.11831 0.2442,0 1.1554,0.5397 2.025,1.19933 0.8696,0.65964 2.003,1.40046 2.5186,1.64627 0.5156,0.24582 1.9953,1.46111 3.2883,2.70067 1.2929,1.23955 2.476,2.25373 2.6289,2.25373 0.2735,0 2.282,1.64381 3.8357,3.13924 0.4348,0.41842 0.9324,0.76076 1.1059,0.76076 0.1735,0 1.1678,0.75044 2.2096,1.66764 1.0417,0.91721 3.0416,2.4226 4.4441,3.34533 1.4025,0.92272 2.9617,2.09602 3.4648,2.60735 0.9346,0.94969 2.6743,2.37364 3.885,3.17968 0.7323,0.48752 4.4024,3.37082 7.0502,5.53862 0.9075,0.743 1.9875,1.5822 2.4,1.865 0.4125,0.2828 1.5096,1.1964 2.438,2.0303 1.761,1.5817 5.77358,4.7067 6.37661,4.9661 0.19179,0.082 1.13301,0.69 2.09163,1.35 0.95862,0.66 1.95753,1.335 2.21976,1.5 0.26226,0.165 1.21857,0.8062 2.12514,1.425 0.9066,0.6187 1.75965,1.125 1.8957,1.125 0.13602,0 1.13469,0.6075 2.21922,1.35 1.08453,0.7425 2.03085,1.35 2.10291,1.35 0.31164,0 0.0735,-1.4009 -0.3285,-1.9324 -0.24225,-0.3202 -0.44046,-0.8099 -0.44046,-1.0882 0,-0.5288 -4.20057,-4.4794 -4.7628,-4.4794 -0.17769,0 -1.035,-0.6863 -1.90512,-1.5251 -0.87015,-0.8388 -2.22333,-1.8513 -3.00708,-2.25 -0.78375,-0.3987 -2.0724,-1.0494 -2.86368,-1.4461 -0.79251,-0.3972 -1.59177,-1.057 -1.77948,-1.469 -0.18744,-0.4114 -0.85095,-1.1331 -1.47447,-1.6039 -0.62358,-0.4708 -1.76108,-1.4634 -2.52798,-2.2059 -1.5743,-1.5242 -5.1942,-4.2 -5.6819,-4.2 -0.1767,0 -1.256,-0.84377 -2.3985,-1.87502 -3.5509,-3.2052 -6.2046,-5.2899 -6.9823,-5.48507 -0.4106,-0.10305 -1.9893,-1.39169 -3.5082,-2.86365 -1.519,-1.47195 -2.9395,-2.67628 -3.1567,-2.67628 -0.2173,0 -0.9606,-0.4725 -1.6518,-1.05 -0.6912,-0.5775 -1.3706,-1.05 -1.5097,-1.05 -0.1392,0 -0.669,-0.57919 -1.1773,-1.28708 -0.5084,-0.7079 -1.7993,-1.94799 -2.8687,-2.75576 -1.0693,-0.80777 -1.9443,-1.6077 -1.9443,-1.77761 0,-0.38198 -2.7254,-3.17955 -3.0976,-3.17955 -0.3381,0 -1.8195,-1.19725 -3.9229,-3.17032 -0.8914,-0.83617 -2.3089,-2.04516 -3.1501,-2.68664 -0.8412,-0.64149 -1.5295,-1.30734 -1.5295,-1.47969 -3e-4,-0.46961 -3.9942,-3.79746 -7.3971,-6.16335 -0.356,-0.2475 -1.9283,-1.49625 -3.4939,-2.775 -1.5657,-1.27875 -2.9957,-2.325 -3.1778,-2.325 -0.182,0 -1.0658,-0.70875 -1.9639,-1.575 -3.2653,-3.14942 -5.9115,-5.48145 -6.6722,-5.88002 -0.4278,-0.22413 -3.4929,-3.08685 -6.8114,-6.3616 -7.202,-7.10715 -7.2916,-7.19128 -9.8622,-9.26077 -1.1118,-0.89506 -2.0214,-1.74906 -2.0214,-1.89778 0,-0.88316 -5.5526,-6.7724 -8.3654,-8.87263 -0.514,-0.3838 -0.9346,-0.87064 -0.9346,-1.08186 0,-0.21122 -0.4725,-1.00285 -1.05,-1.75918 -0.5775,-0.75633 -1.05,-1.4644 -1.05,-1.57348 0,-0.10909 -0.8941,-1.16344 -1.9869,-2.343 -1.0928,-1.17957 -2.8141,-3.21292 -3.825,-4.51857 -1.011,-1.30565 -3.3207,-3.9071 -5.1328,-5.78099 -1.8122,-1.87389 -3.4828,-3.77563 -3.7126,-4.22609 -0.6193,-1.21409 -1.2705,-1.86901 -1.8583,-1.86901 -0.5071,0 -3.547,-3.2064 -4.6219,-4.875 -0.2923,-0.45375 -0.7051,-0.825 -0.9174,-0.825 -0.2122,0 -0.6703,-0.43875 -1.0179,-0.975 -1.5376,-2.37198 -2.5417,-3.58337 -3.1671,-3.82117 -0.3703,-0.14079 -1.331,-1.17799 -2.1348,-2.3049 -0.8039,-1.12692 -2.1734,-2.77253 -3.0435,-3.65694 -0.87,-0.88441 -1.5818,-1.74542 -1.5818,-1.91336 0,-0.45839 -3.9712,-5.09224 -7.1991,-8.40033 -3.3023,-3.38435 -5.4009,-5.74093 -5.4009,-6.06488 0,-0.12484 -1.1475,-1.47706 -2.55,-3.00495 -1.4025,-1.52789 -2.55,-2.9721 -2.55,-3.20938 0,-0.48977 -1.6927,-2.17252 -2.4517,-2.43735 -0.276,-0.0963 -0.546,-0.48706 -0.6,-0.8684 -0.058,-0.41185 -0.4637,-0.87653 -0.9983,-1.14455 -0.495,-0.24816 -1.3852,-0.82191 -1.9783,-1.275 -0.5931,-0.45308 -1.2064,-0.82379 -1.363,-0.82379 -0.1566,0 -0.9217,-0.675 -1.7004,-1.5 -0.7786,-0.825 -1.5964,-1.5 -1.8173,-1.5 -0.8674,0 -3.2104,-1.53256 -4.7778,-3.12523 -0.9065,-0.92112 -1.8608,-1.67477 -2.1205,-1.67477 -0.4694,0 -2.3319,-0.72554 -3.1927,-1.24368 -1.4116,-0.84968 -3.7358,-1.75632 -4.5025,-1.75632 -0.4869,0 -1.3943,-0.19448 -2.0164,-0.43217 -1.7168,-0.65596 -4.8069,-1.36783 -5.9376,-1.36783 -0.5545,0 -1.0915,-0.135 -1.1935,-0.3 -0.102,-0.165 -0.642,-0.3 -1.2,-0.3 -0.558,0 -1.098,0.135 -1.2,0.3 -0.28,0.45307 -1.35,0.35962 -1.35,-0.1179 0,-0.56219 -0.8836,-0.8739 -1.0736,-0.37874 -0.083,0.21629 0.025,1.18763 0.2407,2.15854 0.3591,1.6187 0.4694,1.78119 1.3279,1.95677 0.5149,0.10531 1.3312,0.47272 1.8139,0.81646 0.4827,0.34373 1.2352,0.7147 1.6721,0.82436 0.4369,0.10966 0.9515,0.38863 1.1434,0.61994 0.192,0.23131 0.5141,0.42057 0.7158,0.42057 0.2018,0 0.6112,0.27 0.9098,0.6 0.2986,0.33 0.709,0.6 0.912,0.6 0.2029,0 0.5901,0.3375 0.8604,0.75 0.2703,0.4125 0.705,0.75 0.966,0.75 0.261,0 1.0663,0.39937 1.7896,0.8875 0.7233,0.48812 1.8352,1.02755 2.4709,1.19873 0.6357,0.17118 1.3816,0.56068 1.6575,0.86555 0.2759,0.30487 1.2761,0.73029 2.2226,0.94537 0.9466,0.21508 2.0585,0.60073 2.471,0.85701 1.394,0.86604 3.3299,1.84584 3.6469,1.84584 0.1734,0 1.1231,0.675 2.1104,1.5 0.9873,0.825 1.9885,1.5 2.2249,1.5 0.6928,0 2.8178,1.46758 2.8178,1.94606 0,0.24119 0.403,0.64695 0.8957,0.90169 0.5282,0.27315 0.9786,0.79938 1.0979,1.28271 0.2446,0.99078 1.2646,3.00831 1.6375,3.23874 0.1479,0.0914 0.2689,0.44115 0.2689,0.77719 0,0.33604 0.2584,0.97388 0.5742,1.41743 0.3159,0.44354 0.6714,1.34188 0.7901,1.99631 0.1188,0.65443 0.4053,1.56395 0.6368,2.02117 0.2314,0.45721 0.4733,1.35842 0.5374,2.00267 0.064,0.64426 0.2493,1.41956 0.4117,1.72291 0.1623,0.30335 0.3033,0.88715 0.3133,1.29733 0.01,0.41018 0.097,1.89329 0.1938,3.29579 0.2718,3.94944 0.3147,8.77059 0.085,9.6 -0.1141,0.4125 -0.4431,1.6275 -0.7312,2.7 -0.2881,1.0725 -0.7685,2.4205 -1.0676,2.99555 -0.2991,0.57506 -0.5438,1.2641 -0.5438,1.5312 0,0.2671 -0.3379,0.85023 -0.7509,1.29584 -0.6436,0.69447 -0.9517,0.79715 -2.1569,0.71881 l -1.406,-0.0914 -0.3763,-1.48094 c -0.5288,-2.08123 -1.2175,-2.85913 -3.5892,-4.05427 -1.8155,-0.91485 -2.4035,-1.05674 -4.7707,-1.15128 l -2.7,-0.10782 -1.2634,1.22215 c -0.6949,0.67219 -1.4006,1.22216 -1.5681,1.22216 -0.1676,0 -0.5416,0.37125 -0.8312,0.825 -0.2896,0.45375 -0.9002,1.18291 -1.3569,1.62036 -0.4568,0.43745 -0.8304,0.98594 -0.8304,1.21887 0,0.23293 -0.3915,0.79858 -0.87,1.25699 -0.4785,0.45842 -0.9422,1.19242 -1.0304,1.63113 -0.088,0.43871 -0.5248,1.81015 -0.9699,3.04765 -0.4653,1.29344 -0.8396,3.01744 -0.8804,4.05516 -0.039,0.99285 -0.1704,2.25761 -0.2918,2.81058 -0.142,0.64649 -0.083,1.26374 0.1664,1.729 0.3,0.5606 0.3158,1.14387 0.07,2.58942 -0.1745,1.02621 -0.211,2.06485 -0.081,2.30809 0.13,0.24324 0.1026,0.69208 -0.061,0.99741 -0.4373,0.81719 0.2649,5.64867 1.0921,7.514 1.1511,2.59554 1.3192,2.66969 5.665,2.49992 2.0659,-0.0807 3.9161,-0.24554 4.1115,-0.36631 0.1954,-0.12078 1.5869,-0.27007 3.0923,-0.33176 5.1364,-0.2105 6.3838,-0.32915 7.0157,-0.66732 0.3476,-0.18601 1.1314,-0.33819 1.7419,-0.33819 0.6104,0 1.5981,-0.12913 2.1947,-0.28694 0.5966,-0.15782 2.2998,-0.58066 3.7848,-0.93964 1.485,-0.35898 2.9131,-0.83736 3.1736,-1.06306 0.2605,-0.2257 0.7151,-0.41036 1.0103,-0.41036 0.5118,0 2.8661,-2.09174 2.8661,-2.5464 0,-0.11935 0.3375,-0.61808 0.75,-1.10831 0.639,-0.75947 0.75,-1.19305 0.75,-2.93086 0,-1.68007 -0.1786,-2.42946 -1.0132,-4.25198 -0.5984,-1.30658 -1.3661,-2.46979 -1.875,-2.84097 -1.2511,-0.91242 -2.7014,-1.6212 -3.3219,-1.62338 -0.7669,-0.003 -2.2991,-2.73751 -2.6882,-4.7981 -0.1584,-0.83905 1.4798,-3.6 2.1361,-3.6 0.2097,0 0.7245,-0.27 1.1441,-0.6 0.4998,-0.39316 1.217,-0.6 2.0804,-0.6 0.7247,0 1.4621,-0.14439 1.6386,-0.32085 0.1992,-0.19929 1.785,-0.30484 4.185,-0.27858 3.8374,0.042 5.3319,0.0407 6.3391,-0.006 0.2888,-0.0133 1.2,0.12279 2.025,0.30239 0.825,0.17959 1.8084,0.3223 2.1854,0.31712 0.3769,-0.005 1.4422,0.39448 2.3672,0.8881 0.925,0.49362 2.0789,0.8975 2.5642,0.8975 0.4852,0 1.6862,0.47117 2.6688,1.04706 0.9826,0.57588 2.1135,1.12913 2.5132,1.22943 0.3996,0.10031 0.8837,0.37163 1.0756,0.60294 0.192,0.23131 0.4833,0.42057 0.6475,0.42057 0.3878,0 2.6281,2.30754 2.6281,2.70704 0,0.1685 0.5278,0.87897 1.1729,1.57881 0.6946,0.7535 1.4989,2.1272 1.9722,3.3683 0.4397,1.15271 0.9474,2.36585 1.1284,2.69585 0.3782,0.6894 0.4373,1.16871 0.7134,5.77527 0.1329,2.21813 0.3384,3.48821 0.5992,3.70468 0.4356,0.36152 2.1779,0.86494 3.5213,1.01743 0.4715,0.0535 1.0048,0.24477 1.185,0.42497 0.1802,0.18021 0.8069,0.32968 1.3926,0.33216 1.3684,0.006 2.6848,0.48603 5.1438,1.87651 1.0884,0.61543 2.2787,1.11896 2.645,1.11896 0.3665,0 1.1087,0.3375 1.6495,0.75 0.5408,0.4125 1.1612,0.75 1.3787,0.75 0.6477,0 2.998,1.49438 2.998,1.90623 0,0.47765 1.2227,1.37774 3.0801,2.26729 1.5245,0.73013 1.7311,0.98765 2.4506,3.05386 0.7504,2.15484 0.6156,3.47589 -0.4826,4.73301 -0.9615,1.10053 -2.1214,1.6081 -3.6119,1.58055 -0.5701,-0.0105 -1.0643,0.28828 -1.65,0.99764 -0.5014,0.60718 -1.4969,1.2717 -2.4862,1.65956 -0.9075,0.35579 -1.92,0.88432 -2.25,1.17452 -0.9526,0.83774 -3.3542,2.12734 -3.9617,2.12734 -0.3051,0 -0.8211,0.18195 -1.1465,0.40434 -0.3255,0.22238 -1.2668,0.65063 -2.0918,0.95165 -0.825,0.30103 -1.6552,0.6644 -1.845,0.8075 -0.1897,0.1431 -1.2022,0.39769 -2.25,0.56574 -1.0477,0.16806 -2.0332,0.43273 -2.19,0.58817 -0.1567,0.15543 -0.655,0.2826 -1.1073,0.2826 -0.4522,0 -0.9057,0.135 -1.0077,0.3 -0.102,0.165 -0.5745,0.3 -1.05,0.3 -0.4755,0 -0.9738,0.16875 -1.1073,0.375 -0.1335,0.20625 -0.247,3.0075 -0.2522,6.225 -0.01,4.92128 -0.091,6.0121 -0.525,6.87109 -0.2835,0.5616 -0.5155,1.2067 -0.5155,1.43355 0,1.31296 -2.9159,5.79536 -3.77,5.79536 -0.1967,0 -0.8688,0.62371 -1.4935,1.38603 -0.6246,0.76233 -1.5522,1.58042 -2.0611,1.81799 -1.3811,0.64468 -2.2084,1.14232 -2.822,1.69761 -0.3028,0.2741 -0.6933,0.49837 -0.8677,0.49837 -0.1744,0 -0.7038,0.20166 -1.1764,0.44815 -0.4726,0.24648 -1.4926,0.44898 -2.2666,0.45 -0.774,9e-4 -1.4835,0.1251 -1.5766,0.27574 -0.2872,0.46469 -2.5444,0.71756 -3.0036,0.33648 -0.313,-0.25975 -0.8146,-0.26134 -2.0146,-0.006 -3.1874,0.67718 -6.5914,1.16051 -7.0186,0.99656 -0.2403,-0.0922 -0.6158,-0.0192 -0.8345,0.16227 -0.226,0.18758 -1.81,0.35205 -3.6712,0.38119 -2.7089,0.0424 -3.5065,-0.0529 -4.6236,-0.55282 -1.7409,-0.779 -2.5076,-1.66105 -2.4974,-2.87313 0.01,-1.062 0.695,-3.03565 1.247,-3.58769 0.1927,-0.1927 0.3504,-0.58542 0.3504,-0.87272 0,-0.2873 0.6142,-1.14537 1.3649,-1.90683 0.9474,-0.96104 1.3124,-1.54988 1.1932,-1.92529 -0.096,-0.30347 0.029,-0.70719 0.2851,-0.9199 0.2513,-0.2085 0.4568,-0.51182 0.4568,-0.67405 0,-0.16223 0.3375,-0.69606 0.75,-1.18629 0.4125,-0.49022 0.75,-1.2105 0.75,-1.6006 0,-0.3901 0.1222,-0.78479 0.2715,-0.8771 0.4693,-0.29 0.017,-3.85122 -0.6005,-4.73044 -0.314,-0.44708 -0.571,-0.91449 -0.571,-1.03871 0,-0.12422 -0.3363,-0.56844 -0.7473,-0.98715 -0.411,-0.41871 -1.0798,-1.13254 -1.4863,-1.58629 -0.4451,-0.49684 -1.0478,-0.825 -1.5151,-0.825 -0.4267,0 -1.5516,-0.4037 -2.4996,-0.89711 -0.9481,-0.49341 -2.3938,-1.04001 -3.2127,-1.21467 -0.819,-0.17465 -2.0076,-0.43009 -2.6414,-0.56762 -0.6339,-0.13755 -1.3974,-0.18604 -1.6966,-0.10778 -0.2993,0.0783 -0.9957,-0.0687 -1.5476,-0.32654 -0.6311,-0.29486 -2.3393,-0.54024 -4.6034,-0.66124 -5.0502,-0.2699 -5.0475,-0.27002 -6.1251,0.26759 -0.5486,0.27364 -1.3198,0.4134 -1.7768,0.32199 -0.9329,-0.18658 -2.444,0.81813 -2.4548,1.63215 0,0.27678 -0.2706,0.84073 -0.5933,1.25323 -0.3227,0.4125 -0.5897,0.991 -0.5933,1.28555 0,0.29456 -0.2137,0.8515 -0.4667,1.23766 -0.2531,0.38615 -0.5382,1.02265 -0.6338,1.41444 -0.3443,1.41197 -1.0872,9.70799 -1.0174,11.36235 0.024,0.5775 0.073,2.535 0.108,4.35 0.074,3.85245 0.1789,4.49888 1.5734,9.75 0.793,2.98597 2.133,6.96059 2.58,7.65228 0.1074,0.16626 0.2892,0.8027 0.4039,1.41431 0.1148,0.61162 0.397,1.26837 0.6273,1.45945 0.2302,0.19108 0.4186,0.52662 0.4186,0.74562 0,0.5467 1.7784,3.1389 2.2874,3.3342 0.2272,0.087 0.6672,0.7331 0.9779,1.4355 0.3663,0.8282 2.3164,3.0695 5.5498,6.3783 3.6916,3.7778 4.981,5.2866 4.9698,5.8158 -0.02,0.9355 -1.9073,10.0523 -2.3219,11.2145 -0.5806,1.628 -1.6147,6.321 -1.7241,7.8248 -0.059,0.8114 -0.2387,2.0152 -0.3992,2.6752 -0.9353,3.8461 -1.6024,7.19 -1.8553,9.3 -0.1582,1.32 -0.4193,3.0075 -0.5803,3.75 -0.1609,0.7425 -0.5546,2.7 -0.8747,4.35 -0.3202,1.65 -0.8053,4.1475 -1.0781,5.55 -0.2728,1.4025 -0.683,3.9 -0.9117,5.55 -0.5553,4.00737 -1.2926,7.89947 -1.6114,8.50657 -0.1425,0.2714 -0.3503,1.2359 -0.4617,2.1434 -0.1114,0.9075 -0.4691,3.135 -0.7949,4.95 -0.3258,1.815 -0.7182,4.0425 -0.872,4.95 -0.1539,0.9075 -0.5694,3.135 -0.9235,4.95 -0.3541,1.815 -0.6886,3.975 -0.7434,4.8 -0.055,0.825 -0.238,2.175 -0.4071,3 -0.1691,0.825 -0.4499,2.58 -0.6241,3.9 -0.1741,1.32 -0.4416,2.7375 -0.5944,3.15 -0.1528,0.4125 -0.5581,2.3025 -0.9007,4.2 -0.6274,3.4756 -0.8359,4.5838 -1.6366,8.7 -0.2407,1.2375 -0.6541,3.8025 -0.9185,5.7 -0.2645,1.8975 -0.6225,3.9013 -0.7955,4.4528 -0.1731,0.5515 -0.5061,2.3065 -0.74,3.9 -0.9753,6.6436 -1.3032,8.7265 -1.7547,11.1472 -0.2615,1.4025 -0.6595,3.5625 -0.8843,4.8 -0.2248,1.2375 -0.7064,3.8025 -1.0702,5.7 -0.678,3.536 -1.1132,7.4073 -1.3624,12.1175 -0.078,1.4671 -0.2648,2.8171 -0.4158,3 -0.6099,0.7384 -1.0766,6.9009 -0.617,8.1453 0.1328,0.3592 0.067,0.9114 -0.1601,1.3348 -0.2126,0.3972 -0.3232,0.8872 -0.2458,1.0889 0.1967,0.5126 2.2161,0.2905 4.5945,-0.5051 1.7893,-0.5986 2.3704,-0.6396 7.05,-0.4969 4.0951,0.1249 5.4547,0.2782 6.9,0.7782 0.99,0.3424 2.2983,0.6259 2.9073,0.63 0.609,0 1.1875,0.1371 1.2854,0.2956 0.098,0.1586 1.1636,0.2768 2.3679,0.2628 1.2044,-0.014 2.4733,0.1262 2.8198,0.3117 0.3466,0.1855 0.8925,0.3372 1.2131,0.3372 0.3207,0 0.7511,0.2025 0.9565,0.45 0.2238,0.2697 0.8799,0.45 1.6372,0.45 1.201,0 4.5996,0.9403 5.5628,1.539 0.2475,0.1539 1.125,0.2048 1.95,0.113 0.825,-0.092 2.6184,-0.2513 3.9853,-0.3546 z m 87.6139,-236.35086 c 0.5736,-0.72915 0.5804,-1.76913 0.014,-2.11922 -0.1454,-0.0899 -0.1821,-0.67832 -0.082,-1.30764 0.1127,-0.70464 0.055,-1.22312 -0.1493,-1.3496 -0.1828,-0.11296 -0.3339,-0.77117 -0.3359,-1.46268 0,-1.12857 -0.1903,-1.97312 -1.2419,-5.60729 -0.1672,-0.5775 -0.4232,-1.89926 -0.5691,-2.93724 -0.1458,-1.03799 -0.3534,-2.03003 -0.4613,-2.20454 -0.1078,-0.17451 -0.3841,-2.0232 -0.6139,-4.10818 -0.5338,-4.84379 -0.7378,-5.11449 -3.4738,-4.61036 -2.2517,0.4149 -3.6865,0.13809 -3.6865,-0.71125 0,-0.51008 0.2954,-0.60035 2.5001,-0.76417 3.2825,-0.24389 3.6753,-0.58713 2.959,-2.58555 -0.2816,-0.78578 -0.5114,-1.7006 -0.5105,-2.03293 0,-0.74393 -1.0733,-3.74048 -1.4923,-4.15956 -0.1683,-0.16841 -0.3061,-0.6842 -0.3061,-1.1462 0,-0.9687 0.047,-0.96156 -3.5779,-0.54484 -1.7459,0.20073 -2.6462,0.19236 -2.9106,-0.0271 -0.2105,-0.17472 -0.6255,-0.24488 -0.9221,-0.1559 -0.2967,0.089 -2.0017,0.1915 -3.7889,0.22783 -2.5441,0.0517 -3.307,-0.0269 -3.5142,-0.36199 -0.5033,-0.814 0.4279,-1.11157 4.0458,-1.29285 1.9702,-0.0987 3.7185,-0.31578 3.885,-0.48235 0.1666,-0.16656 0.7146,-0.30838 1.2179,-0.31514 0.5032,-0.007 1.9275,-0.25034 3.165,-0.54128 l 2.25,-0.52898 -0.1044,-2.23332 c -0.057,-1.22833 -0.2262,-2.46088 -0.375,-2.739 -0.1489,-0.27812 -0.2706,-1.06126 -0.2706,-1.7403 0,-1.49135 -0.5993,-2.73874 -1.6448,-3.42377 -0.4309,-0.28237 -0.7376,-0.73527 -0.6903,-1.01955 0.073,-0.44078 -0.2053,-0.51261 -2.0149,-0.51948 -1.155,-0.004 -3.045,0.0896 -4.2,0.20886 -2.081,0.21486 -2.107,0.20856 -2.8642,-0.69388 -0.7614,-0.9074 -0.7742,-0.91039 -3.5245,-0.82332 -1.8151,0.0575 -2.8804,-0.0327 -3.111,-0.26332 -0.2676,-0.26759 -0.2499,-0.38727 0.074,-0.50507 0.3924,-0.14244 3.9858,-0.54438 9.1252,-1.02067 2.0123,-0.1865 2.104,-0.22907 2.1949,-1.01962 0.081,-0.70465 0.2343,-0.82654 1.05,-0.83554 1.1035,-0.0122 4.4446,-0.69306 4.9581,-1.0104 0.3916,-0.24202 0.2708,-2.54079 -0.2425,-4.61431 -0.2078,-0.83942 -0.226,-2.03615 -0.053,-3.45 0.2972,-2.42281 0.065,-3.21498 -0.9433,-3.2143 -0.3655,2.4e-4 -2.9595,0.25429 -5.7645,0.56455 -7.2876,0.80609 -9.4918,0.81751 -10.1839,0.0527 -0.6431,-0.71059 -0.6153,-0.72564 2.1922,-1.18634 1.0495,-0.17223 2.0958,-0.46883 2.3251,-0.65913 0.2293,-0.1903 1.3956,-0.38088 2.5918,-0.42353 2.3112,-0.0824 6.8173,-0.61071 7.7596,-0.90979 0.4194,-0.1331 0.5647,-0.46447 0.5632,-1.28417 0,-0.60763 0.1572,-2.15029 0.3517,-3.42813 0.1945,-1.27784 0.2584,-2.41853 0.1421,-2.53487 -0.1163,-0.11633 -1.7933,0.099 -3.7267,0.47844 -8.2074,1.61098 -11.8994,2.07863 -18.0651,2.28823 -0.9075,0.0308 -3.2025,0.21555 -5.1,0.41045 -7.7303,0.79402 -9.4162,0.93127 -11.4857,0.93509 -1.1904,0.002 -3.6493,0.2704 -5.4643,0.59601 -2.5258,0.45313 -4.6547,0.59295 -9.075,0.59601 -3.7783,0.003 -5.775,0.11136 -5.775,0.31454 0,0.50784 0.9701,1.83355 1.4957,2.04405 0.2684,0.10747 1.3636,1.2079 2.4338,2.4454 2.2527,2.60476 8.0705,10.33868 8.0705,10.72847 0,0.14521 1.1138,1.49675 2.475,3.00342 1.3613,1.50668 3.825,4.2483 5.475,6.0925 1.65,1.8442 4.601,4.97447 6.5578,6.95614 1.9568,1.98167 3.7563,4.07827 3.999,4.6591 0.6053,1.44881 2.9844,4.14249 4.0475,4.58286 0.4807,0.19911 1.0574,0.71425 1.2816,1.14476 0.2242,0.43051 1.1966,1.4342 2.1609,2.23042 1.71,1.41198 2.3862,2.16037 6.1464,6.80232 1.0024,1.2375 2.2803,2.63108 2.8397,3.09684 0.5594,0.46577 1.0171,0.97914 1.0171,1.14082 0,0.16169 0.7763,1.01935 1.725,1.90591 0.9488,0.88656 2.1975,2.24249 2.775,3.01318 1.7286,2.30688 3.3509,4.04323 3.7777,4.04323 0.2207,0 0.5381,0.25581 0.7054,0.56845 0.1673,0.31265 0.7016,0.70697 1.1873,0.87629 0.4857,0.16931 1.0416,0.62227 1.2353,1.00655 0.1938,0.3843 1.048,1.38475 1.8983,2.22325 0.8503,0.83849 1.8906,2.00729 2.3118,2.59733 0.8525,1.19431 3.838,3.78865 4.3874,3.81269 0.1943,0.008 0.62,-0.32366 0.946,-0.73812 z m -251.1812,-25.10042 c 1.1649,-1.20779 2.5868,-2.73599 3.1597,-3.39599 0.5729,-0.66 3.411,-3.495 6.3068,-6.3 4.8068,-4.65614 8.9655,-9.11697 8.9655,-9.61689 0,-0.10974 1.5525,-1.8543 3.45,-3.87679 1.8975,-2.02249 3.45,-3.79435 3.45,-3.93746 0,-0.14312 1.5525,-1.75757 3.45,-3.58767 1.8975,-1.8301 3.4527,-3.45205 3.4561,-3.60433 0,-0.15227 0.8393,-1.01936 1.8577,-1.92686 4.7772,-4.257 13.5561,-13.61824 13.6826,-14.59029 0.058,-0.44551 0.3753,-0.84687 0.7959,-1.00678 0.8916,-0.33897 1.1735,-0.79292 0.6876,-1.1072 -0.2089,-0.13515 -2.6074,-0.25264 -5.3299,-0.26108 -2.7225,-0.008 -6.042,-0.19799 -7.3766,-0.42121 -1.7667,-0.29547 -2.6723,-0.32024 -3.3296,-0.0911 -1.1494,0.40069 -6.0765,9e-4 -7.7739,-0.63068 -0.6765,-0.25176 -2.558,-0.53735 -4.1812,-0.63465 -1.6231,-0.0973 -3.1061,-0.30547 -3.2954,-0.46262 -0.1894,-0.15715 -0.9845,-0.25786 -1.7669,-0.22381 -1.386,0.0603 -1.457,0.11107 -2.7577,1.9717 -1.7386,2.48712 -1.8272,3.18201 -0.4187,3.28301 1.9806,0.14203 7.35,1.04784 7.8932,1.33159 0.2988,0.15606 0.4898,0.44335 0.4245,0.63843 -0.085,0.2553 -1.6248,0.35469 -5.4932,0.35469 l -5.3745,0 -1.8944,3.86983 c -1.5557,3.17784 -1.824,3.93768 -1.5,4.24919 0.2476,0.23815 1.5668,0.4247 3.5444,0.50121 2.6514,0.10258 3.1653,0.20163 3.2469,0.62582 0.053,0.27717 -0.014,0.51517 -0.1499,0.5289 -0.1358,0.0137 -1.9345,0.18248 -3.997,0.375 l -3.75,0.35005 -0.8134,1.65 c -1.0982,2.22784 -2.4453,6.48403 -2.2298,7.04546 0.1377,0.35906 0.7367,0.45454 2.8517,0.45454 2.0771,0 2.7152,0.0987 2.8463,0.44039 0.2654,0.69162 -0.3523,0.87927 -3.3225,1.00933 -1.5657,0.0686 -2.8798,0.26866 -3.0259,0.46074 -0.4218,0.5545 -1.544,3.57969 -1.6283,4.38954 -0.07,0.66734 0.054,0.76653 1.1219,0.9 0.8,0.1 1.2,0.3 1.2,0.6 0,0.30915 -0.3756,0.47974 -1.2,0.54504 -1.421,0.11255 -1.6298,0.28382 -2.134,1.75048 -0.4348,1.2647 -0.2894,1.7198 0.4847,1.51738 0.2931,-0.0767 0.7025,-0.0345 0.9098,0.0936 0.5996,0.3706 0.1121,1.11892 -0.8695,1.3345 -0.4947,0.10867 -1.0281,0.35765 -1.1853,0.55329 -0.6432,0.80043 -1.5047,5.65269 -1.6878,9.50572 -0.1058,2.2275 -0.3283,4.82878 -0.4944,5.78063 -0.5226,2.99559 -0.052,2.93157 3.1945,-0.43463 z" id="path4229-1" />
    </g>
</svg>
